<svg width="34" height="34" viewBox="0 0 34 34" fill="none" xmlns="http://www.w3.org/2000/svg">
<path d="M15 26.8117L10.7083 31.0829C10.4028 31.393 10.0208 31.5481 9.5625 31.5481C9.10417 31.5481 8.72222 31.379 8.41667 31.0406C8.08333 30.7305 7.91667 30.3429 7.91667 29.8777C7.91667 29.4125 8.08333 29.0107 8.41667 28.6724L15 21.9906V18.6075H11.6667L5.04167 25.3315C4.73611 25.6417 4.35417 25.7967 3.89583 25.7967C3.4375 25.7967 3.04167 25.6276 2.70833 25.2892C2.40278 24.9791 2.25 24.5915 2.25 24.1263C2.25 23.6611 2.40278 23.2734 2.70833 22.9633L6.91667 18.6075H1.625C1.15278 18.6075 0.763889 18.4454 0.458333 18.1211C0.152778 17.7969 0 17.3952 0 16.9159C0 16.4366 0.159722 16.0348 0.479167 15.7106C0.798611 15.3864 1.19444 15.2243 1.66667 15.2243H6.91667L2.70833 10.9107C2.40278 10.6006 2.25 10.213 2.25 9.74777C2.25 9.28259 2.41667 8.88084 2.75 8.54252C3.05556 8.23239 3.4375 8.07733 3.89583 8.07733C4.35417 8.07733 4.75 8.23239 5.08333 8.54252L11.6667 15.2243H15V11.8411L8.375 5.15934C8.06944 4.84922 7.91667 4.46156 7.91667 3.99638C7.91667 3.53119 8.08333 3.12944 8.41667 2.79112C8.72222 2.481 9.10417 2.32593 9.5625 2.32593C10.0208 2.32593 10.4028 2.481 10.7083 2.79112L15 7.02009V1.69159C15 1.2123 15.1597 0.810552 15.4792 0.486331C15.7986 0.16211 16.1944 0 16.6667 0C17.1389 0 17.5347 0.16211 17.8542 0.486331C18.1736 0.810552 18.3333 1.2123 18.3333 1.69159V7.02009L22.5833 2.79112C22.8889 2.481 23.2708 2.32593 23.7292 2.32593C24.1875 2.32593 24.5833 2.481 24.9167 2.79112C25.2222 3.12944 25.375 3.53119 25.375 3.99638C25.375 4.46156 25.2222 4.84922 24.9167 5.15934L18.3333 11.8411V15.2243H21.6667L28.25 8.54252C28.5556 8.23239 28.9375 8.07733 29.3958 8.07733C29.8542 8.07733 30.25 8.24649 30.5833 8.58481C30.8889 8.89493 31.0417 9.28259 31.0417 9.74777C31.0417 10.213 30.8889 10.6006 30.5833 10.9107L26.4167 15.2243H31.6667C32.1389 15.2243 32.5347 15.3864 32.8542 15.7106C33.1736 16.0348 33.3333 16.4366 33.3333 16.9159C33.3333 17.3952 33.1736 17.7969 32.8542 18.1211C32.5347 18.4454 32.1389 18.6075 31.6667 18.6075H26.4167L30.5833 22.9633C30.8889 23.2734 31.0417 23.6611 31.0417 24.1263C31.0417 24.5915 30.8889 24.9791 30.5833 25.2892C30.25 25.6276 29.8542 25.7967 29.3958 25.7967C28.9375 25.7967 28.5556 25.6276 28.25 25.2892L21.6667 18.6075H18.3333V21.9906L24.9167 28.7147C25.2222 29.0248 25.375 29.4125 25.375 29.8777C25.375 30.3429 25.2083 30.7446 24.875 31.0829C24.5694 31.393 24.1875 31.5481 23.7292 31.5481C23.2708 31.5481 22.8889 31.393 22.5833 31.0829L18.3333 26.8117V32.1825C18.3333 32.6617 18.1736 33.0564 17.8542 33.3666C17.5347 33.6767 17.1389 33.8318 16.6667 33.8318C16.1944 33.8318 15.7986 33.6696 15.4792 33.3454C15.1597 33.0212 15 32.6194 15 32.1402V26.8117Z" fill="#101010"/>
</svg>
