<svg width="18" height="20" viewBox="0 0 18 20" fill="none" xmlns="http://www.w3.org/2000/svg">
<path d="M5 10V8H7V10H5ZM11 10V8H13V10H11ZM0 20V12H1V8C1 6.9 1.20833 5.8625 1.625 4.8875C2.04167 3.9125 2.6125 3.0625 3.3375 2.3375C4.0625 1.6125 4.9125 1.04167 5.8875 0.625C6.8625 0.208333 7.9 0 9 0C10.1 0 11.1375 0.208333 12.1125 0.625C13.0875 1.04167 13.9375 1.6125 14.6625 2.3375C15.3875 3.0625 15.9583 3.9125 16.375 4.8875C16.7917 5.8625 17 6.9 17 8V12H18V20H0ZM2 18H4V14H2V18ZM6 18H8V14H6V18ZM3 12H8V2.075C6.56667 2.30833 5.375 2.97917 4.425 4.0875C3.475 5.19583 3 6.5 3 8V12ZM10 12H15V8C15 6.5 14.525 5.19583 13.575 4.0875C12.625 2.97917 11.4333 2.30833 10 2.075V12ZM10 18H12V14H10V18ZM14 18H16V14H14V18Z" fill="#1C1B1F"/>
</svg>
