<svg width="16" height="18" viewBox="0 0 16 18" fill="none" xmlns="http://www.w3.org/2000/svg">
<path d="M2 10H14V7H6V2H4C3.45 2 2.97917 2.19583 2.5875 2.5875C2.19583 2.97917 2 3.45 2 4V10ZM8 16C8.33333 16 8.66667 15.9792 9 15.9375C9.33333 15.8958 9.66667 15.8333 10 15.75V12H6V15.75C6.33333 15.8333 6.66667 15.8958 7 15.9375C7.33333 15.9792 7.66667 16 8 16ZM8 18C6.66667 18 5.39167 17.7458 4.175 17.2375C2.95833 16.7292 1.875 16.0083 0.925 15.075L2.35 13.65C2.6 13.9 2.8625 14.1292 3.1375 14.3375C3.4125 14.5458 3.7 14.7417 4 14.925V12H2C1.45 12 0.979167 11.8042 0.5875 11.4125C0.195833 11.0208 0 10.55 0 10V4C0 2.9 0.391667 1.95833 1.175 1.175C1.95833 0.391667 2.9 0 4 0H8V5H14C14.55 5 15.0208 5.19583 15.4125 5.5875C15.8042 5.97917 16 6.45 16 7V10C16 10.55 15.8042 11.0208 15.4125 11.4125C15.0208 11.8042 14.55 12 14 12H12V14.925C12.3 14.7417 12.5875 14.5458 12.8625 14.3375C13.1375 14.1292 13.4 13.9 13.65 13.65L15.075 15.075C14.125 16.0083 13.0417 16.7292 11.825 17.2375C10.6083 17.7458 9.33333 18 8 18Z" fill="#1C1B1F"/>
</svg>
