<svg width="35" height="34" viewBox="0 0 35 34" fill="none" xmlns="http://www.w3.org/2000/svg">
<path d="M26.6667 6.76635C25.75 6.76635 24.9653 6.43508 24.3125 5.77254C23.6597 5.11 23.3333 4.31355 23.3333 3.38318C23.3333 2.4528 23.6597 1.65635 24.3125 0.993808C24.9653 0.331269 25.75 0 26.6667 0C27.5833 0 28.3681 0.331269 29.0208 0.993808C29.6736 1.65635 30 2.4528 30 3.38318C30 4.31355 29.6736 5.11 29.0208 5.77254C28.3681 6.43508 27.5833 6.76635 26.6667 6.76635ZM25 33.8318V20.2991C25 19.1713 24.7153 18.1564 24.1458 17.2542C23.5764 16.352 22.8472 15.6472 21.9583 15.1397L23.4167 10.7839C23.6389 10.079 24.0486 9.51518 24.6458 9.09228C25.2431 8.66939 25.9167 8.45794 26.6667 8.45794C27.4167 8.45794 28.0903 8.66939 28.6875 9.09228C29.2847 9.51518 29.6944 10.079 29.9167 10.7839L34.1667 23.6822H30V33.8318H25ZM15.7292 15.33C15.2431 14.8366 15 14.2375 15 13.5327C15 12.8279 15.2431 12.2288 15.7292 11.7354C16.2153 11.242 16.8056 10.9953 17.5 10.9953C18.1944 10.9953 18.7847 11.242 19.2708 11.7354C19.7569 12.2288 20 12.8279 20 13.5327C20 14.2375 19.7569 14.8366 19.2708 15.33C18.7847 15.8234 18.1944 16.0701 17.5 16.0701C16.8056 16.0701 16.2153 15.8234 15.7292 15.33ZM5.83333 6.76635C4.91667 6.76635 4.13194 6.43508 3.47917 5.77254C2.82639 5.11 2.5 4.31355 2.5 3.38318C2.5 2.4528 2.82639 1.65635 3.47917 0.993808C4.13194 0.331269 4.91667 0 5.83333 0C6.75 0 7.53472 0.331269 8.1875 0.993808C8.84028 1.65635 9.16667 2.4528 9.16667 3.38318C9.16667 4.31355 8.84028 5.11 8.1875 5.77254C7.53472 6.43508 6.75 6.76635 5.83333 6.76635ZM2.5 33.8318V21.9906H0V11.8411C0 10.9107 0.326389 10.1143 0.979167 9.45175C1.63194 8.78921 2.41667 8.45794 3.33333 8.45794H8.33333C9.25 8.45794 10.0347 8.78921 10.6875 9.45175C11.3403 10.1143 11.6667 10.9107 11.6667 11.8411V21.9906H9.16667V33.8318H2.5ZM15 33.8318V27.0654H13.3333V20.2991C13.3333 19.5942 13.5764 18.9951 14.0625 18.5017C14.5486 18.0084 15.1389 17.7617 15.8333 17.7617H19.1667C19.8611 17.7617 20.4514 18.0084 20.9375 18.5017C21.4236 18.9951 21.6667 19.5942 21.6667 20.2991V27.0654H20V33.8318H15Z" fill="#101010"/>
</svg>
