<svg width="22" height="31" viewBox="0 0 22 31" fill="none" xmlns="http://www.w3.org/2000/svg">
<path d="M0 30.4486V0H11.6667C14.4444 0 16.8056 0.986759 18.75 2.96028C20.6944 4.9338 21.6667 7.33021 21.6667 10.1495C21.6667 12.9688 20.6944 15.3653 18.75 17.3388C16.8056 19.3123 14.4444 20.299 11.6667 20.299H6.66667V30.4486H0ZM6.66667 13.5327H12C12.9167 13.5327 13.7014 13.2014 14.3542 12.5389C15.0069 11.8764 15.3333 11.0799 15.3333 10.1495C15.3333 9.21915 15.0069 8.4227 14.3542 7.76016C13.7014 7.09762 12.9167 6.76635 12 6.76635H6.66667V13.5327Z" fill="#101010"/>
</svg>
