<svg width="34" height="34" viewBox="0 0 34 34" fill="none" xmlns="http://www.w3.org/2000/svg">
<path d="M31.0417 12.4971L28.7083 10.1288L29.9583 8.81785L24.625 3.40477L23.3333 4.67346L20.9583 2.26295L22.2083 0.951968C22.8472 0.303526 23.6389 -0.0136467 24.5833 0.00044989C25.5278 0.0145465 26.3194 0.345816 26.9583 0.994257L32.3333 6.44963C32.9722 7.09807 33.2917 7.89452 33.2917 8.83899C33.2917 9.78346 32.9722 10.5799 32.3333 11.2284L31.0417 12.4971ZM11.0417 32.8384C10.4028 33.4868 9.61806 33.811 8.6875 33.811C7.75695 33.811 6.97222 33.4868 6.33333 32.8384L0.958333 27.383C0.319444 26.7346 0 25.9381 0 24.9936C0 24.0492 0.319444 23.2527 0.958333 22.6043L2.20833 21.3356L4.58333 23.7461L3.29167 25.0148L8.66667 30.4702L9.91667 29.1592L12.2917 31.5697L11.0417 32.8384ZM27.5833 18.6291L29.9583 16.2185L17.3333 3.40477L14.9583 5.81528L27.5833 18.6291ZM15.9167 30.4702L18.2917 28.0174L5.70833 15.2459L3.29167 17.6564L15.9167 30.4702ZM15.6667 20.5744L20.25 15.9648L17.5833 13.2583L13.0417 17.9101L15.6667 20.5744ZM18.2917 32.8384C17.6528 33.4868 16.8611 33.811 15.9167 33.811C14.9722 33.811 14.1806 33.4868 13.5417 32.8384L0.958333 20.0669C0.319444 19.4185 0 18.615 0 17.6564C0 16.6978 0.319444 15.8943 0.958333 15.2459L3.33333 12.8354C3.97222 12.1869 4.75695 11.8627 5.6875 11.8627C6.61806 11.8627 7.40278 12.1869 8.04167 12.8354L10.6667 15.4996L15.25 10.8478L12.625 8.22579C11.9861 7.57735 11.6667 6.77385 11.6667 5.81528C11.6667 4.85671 11.9861 4.05321 12.625 3.40477L15 0.994257C15.6389 0.345816 16.4236 0.0215947 17.3542 0.0215947C18.2847 0.0215947 19.0694 0.345816 19.7083 0.994257L32.3333 13.808C32.9722 14.4565 33.2917 15.2529 33.2917 16.1974C33.2917 17.1419 32.9722 17.9383 32.3333 18.5868L29.9583 20.9973C29.3194 21.6457 28.5278 21.9699 27.5833 21.9699C26.6389 21.9699 25.8472 21.6457 25.2083 20.9973L22.625 18.333L18.0417 22.9849L20.6667 25.6491C21.3056 26.2976 21.625 27.094 21.625 28.0385C21.625 28.983 21.3056 29.7794 20.6667 30.4279L18.2917 32.8384Z" fill="#101010"/>
</svg>
