<svg width="14" height="18" viewBox="0 0 14 18" fill="none" xmlns="http://www.w3.org/2000/svg">
<path d="M8.3 17.725C8.2 17.8083 8.09583 17.875 7.9875 17.925C7.87917 17.975 7.75833 18 7.625 18C7.49167 18 7.35833 17.9708 7.225 17.9125C7.09167 17.8542 6.975 17.775 6.875 17.675C6.19167 16.9417 5.6875 16.1917 5.3625 15.425C5.0375 14.6583 4.875 13.85 4.875 13C4.875 12.3833 4.96667 11.7333 5.15 11.05C5.33333 10.3667 5.65 9.48333 6.1 8.4C6.48333 7.45 6.75 6.72083 6.9 6.2125C7.05 5.70417 7.125 5.23333 7.125 4.8C7.125 4.23333 7 3.70417 6.75 3.2125C6.5 2.72083 6.10833 2.225 5.575 1.725C5.475 1.625 5.39583 1.50833 5.3375 1.375C5.27917 1.24167 5.25 1.10833 5.25 0.975C5.25 0.841667 5.275 0.720833 5.325 0.6125C5.375 0.504167 5.44167 0.4 5.525 0.3C5.625 0.2 5.7375 0.125 5.8625 0.075C5.9875 0.025 6.11667 0 6.25 0C6.38333 0 6.50833 0.025 6.625 0.075C6.74167 0.125 6.85 0.191667 6.95 0.275C7.68333 0.958333 8.22917 1.675 8.5875 2.425C8.94583 3.175 9.125 3.96667 9.125 4.8C9.125 5.38333 9.0375 5.99583 8.8625 6.6375C8.6875 7.27917 8.38333 8.11667 7.95 9.15C7.53333 10.15 7.25 10.9167 7.1 11.45C6.95 11.9833 6.875 12.4917 6.875 12.975C6.875 13.5583 6.99583 14.1208 7.2375 14.6625C7.47917 15.2042 7.85 15.75 8.35 16.3C8.43333 16.4 8.5 16.5083 8.55 16.625C8.6 16.7417 8.625 16.8667 8.625 17C8.625 17.1333 8.6 17.2625 8.55 17.3875C8.5 17.5125 8.41667 17.625 8.3 17.725ZM13.175 17.725C13.075 17.8083 12.9708 17.875 12.8625 17.925C12.7542 17.975 12.6333 18 12.5 18C12.3667 18 12.2333 17.9708 12.1 17.9125C11.9667 17.8542 11.85 17.775 11.75 17.675C11.0667 16.9417 10.5625 16.1958 10.2375 15.4375C9.9125 14.6792 9.75 13.875 9.75 13.025C9.75 12.4083 9.84167 11.75 10.025 11.05C10.2083 10.35 10.525 9.46667 10.975 8.4C11.3583 7.45 11.625 6.725 11.775 6.225C11.925 5.725 12 5.25833 12 4.825C12 4.25833 11.875 3.72083 11.625 3.2125C11.375 2.70417 10.9833 2.20833 10.45 1.725C10.35 1.625 10.275 1.5125 10.225 1.3875C10.175 1.2625 10.15 1.13333 10.15 1C10.15 0.866667 10.1708 0.745833 10.2125 0.6375C10.2542 0.529167 10.3167 0.425 10.4 0.325C10.5 0.225 10.6167 0.145833 10.75 0.0875C10.8833 0.0291667 11.0167 0 11.15 0C11.2833 0 11.4042 0.025 11.5125 0.075C11.6208 0.125 11.725 0.191667 11.825 0.275C12.5583 0.958333 13.1042 1.675 13.4625 2.425C13.8208 3.175 14 3.96667 14 4.8C14 5.38333 13.9125 5.99583 13.7375 6.6375C13.5625 7.27917 13.2583 8.125 12.825 9.175C12.4083 10.175 12.125 10.9417 11.975 11.475C11.825 12.0083 11.75 12.5083 11.75 12.975C11.75 13.5583 11.875 14.1292 12.125 14.6875C12.375 15.2458 12.75 15.7917 13.25 16.325C13.3333 16.425 13.3958 16.5333 13.4375 16.65C13.4792 16.7667 13.5 16.8833 13.5 17C13.5 17.1333 13.475 17.2667 13.425 17.4C13.375 17.5333 13.2917 17.6417 13.175 17.725ZM3.425 17.725C3.325 17.8083 3.22083 17.875 3.1125 17.925C3.00417 17.975 2.88333 18 2.75 18C2.61667 18 2.48333 17.9708 2.35 17.9125C2.21667 17.8542 2.1 17.775 2 17.675C1.31667 16.9417 0.8125 16.1958 0.4875 15.4375C0.1625 14.6792 0 13.875 0 13.025C0 12.4083 0.0916667 11.75 0.275 11.05C0.458333 10.35 0.775 9.46667 1.225 8.4C1.60833 7.45 1.875 6.725 2.025 6.225C2.175 5.725 2.25 5.25833 2.25 4.825C2.25 4.25833 2.125 3.72083 1.875 3.2125C1.625 2.70417 1.23333 2.20833 0.7 1.725C0.583333 1.625 0.5 1.5125 0.45 1.3875C0.4 1.2625 0.375 1.13333 0.375 1C0.375 0.866667 0.4 0.741667 0.45 0.625C0.5 0.508333 0.566667 0.4 0.65 0.3C0.75 0.2 0.8625 0.125 0.9875 0.075C1.1125 0.025 1.24167 0 1.375 0C1.50833 0 1.63333 0.025 1.75 0.075C1.86667 0.125 1.975 0.191667 2.075 0.275C2.80833 0.958333 3.35417 1.67083 3.7125 2.4125C4.07083 3.15417 4.25 3.95 4.25 4.8C4.25 5.38333 4.16667 5.99583 4 6.6375C3.83333 7.27917 3.53333 8.11667 3.1 9.15C2.68333 10.15 2.4 10.9167 2.25 11.45C2.1 11.9833 2.025 12.4917 2.025 12.975C2.025 13.5583 2.14583 14.1292 2.3875 14.6875C2.62917 15.2458 3 15.7917 3.5 16.325C3.58333 16.425 3.64583 16.5333 3.6875 16.65C3.72917 16.7667 3.75 16.8833 3.75 17C3.75 17.1333 3.725 17.2667 3.675 17.4C3.625 17.5333 3.54167 17.6417 3.425 17.725Z" fill="#1C1B1F"/>
</svg>
