<svg width="22" height="17" viewBox="0 0 22 17" fill="none" xmlns="http://www.w3.org/2000/svg">
<path d="M4 10.95C3.16667 10.95 2.45833 10.6583 1.875 10.075C1.29167 9.49167 1 8.78333 1 7.95V3.95H14.025C14.1083 3.4 14.3333 2.90833 14.7 2.475C15.0667 2.04167 15.5167 1.73333 16.05 1.55L20.675 0L21.3 1.9L16.675 3.45C16.475 3.51667 16.3125 3.6375 16.1875 3.8125C16.0625 3.9875 16 4.18333 16 4.4V7.95C16 8.78333 15.7083 9.49167 15.125 10.075C14.5417 10.6583 13.8333 10.95 13 10.95H4ZM4 8.95H13C13.2833 8.95 13.5208 8.85417 13.7125 8.6625C13.9042 8.47083 14 8.23333 14 7.95V5.95H3V7.95C3 8.23333 3.09583 8.47083 3.2875 8.6625C3.47917 8.85417 3.71667 8.95 4 8.95ZM7 16.95V13.95H0V11.95H7C7.55 11.95 8.02083 12.1458 8.4125 12.5375C8.80417 12.9292 9 13.4 9 13.95V16.95H7ZM11 16.95V13.95C11 13.4 11.1958 12.9292 11.5875 12.5375C11.9792 12.1458 12.45 11.95 13 11.95H20V13.95H13V16.95H11Z" fill="#1C1B1F"/>
</svg>
