<svg width="15" height="15" viewBox="0 0 15 15" fill="none" xmlns="http://www.w3.org/2000/svg">
<path d="M3.33333 1.66667C3.33333 2.55167 2.74167 3.31333 1.66583 3.31333C0.653333 3.31333 0 2.595 0 1.71C0 0.801667 0.633333 0 1.66667 0C2.7 0 3.31333 0.758333 3.33333 1.66667ZM0 15V4.16667H3.33333V15H0ZM5 7.87C5 6.5825 4.9575 5.50667 4.915 4.5775H7.91L8.05833 6.01333H8.12167C8.54333 5.3375 9.57667 4.34667 11.3067 4.34667C13.4167 4.34667 15 5.75917 15 8.79833V15H11.6667V9.2825C11.6667 7.95417 11.1608 6.94083 10 6.94083C9.115 6.94083 8.67167 7.6575 8.43917 8.24833C8.35417 8.46 8.33333 8.755 8.33333 9.05083V15H5V7.87Z" fill="white"/>
</svg>
