<svg width="30" height="34" viewBox="0 0 30 34" fill="none" xmlns="http://www.w3.org/2000/svg">
<path d="M5 33.8318V18.3537C3.5 17.959 2.29167 17.1555 1.375 15.9432C0.458333 14.7309 0 13.3635 0 11.8411V0H3.33333V10.1495H5V0H8.33333V10.1495H10V0H13.3333V11.8411C13.3333 13.3635 12.875 14.7309 11.9583 15.9432C11.0417 17.1555 9.83333 17.959 8.33333 18.3537V33.8318H5ZM21.6667 33.8318V17.7194C20.1667 17.2119 18.9583 16.1476 18.0417 14.5265C17.125 12.9054 16.6667 11.0658 16.6667 9.0077C16.6667 6.49852 17.3194 4.36994 18.625 2.62196C19.9306 0.873987 21.5 0 23.3333 0C25.1667 0 26.7361 0.881035 28.0417 2.64311C29.3472 4.40518 30 6.54081 30 9.04999C30 11.1081 29.5417 12.9406 28.625 14.5477C27.7083 16.1547 26.5 17.2119 25 17.7194V33.8318H21.6667Z" fill="#101010"/>
</svg>
