<svg width="15" height="12" viewBox="0 0 15 12" fill="none" xmlns="http://www.w3.org/2000/svg">
<path d="M13.4641 2.98716C13.4701 3.11771 13.4731 3.24826 13.4731 3.37882C13.4731 7.38363 10.3777 12 4.71766 12C2.9788 12 1.36223 11.4984 0 10.638C0.805737 10.7338 1.62275 10.6724 2.40438 10.4573C3.18601 10.2422 3.91694 9.87766 4.55543 9.38443C3.91341 9.37236 3.29126 9.16315 2.77591 8.78601C2.26056 8.40887 1.87775 7.88266 1.68098 7.2809C2.14245 7.3658 2.61736 7.34798 3.07092 7.22873C2.37448 7.08955 1.74831 6.71767 1.29846 6.17607C0.848601 5.63447 0.602717 4.95644 0.602446 4.25682V4.2191C1.03018 4.45216 1.50788 4.58224 1.99647 4.59872C1.34419 4.17061 0.882454 3.51358 0.705502 2.76172C0.528551 2.00987 0.649726 1.21987 1.04429 0.552973C1.81709 1.48899 2.78116 2.25456 3.87395 2.80001C4.96674 3.34547 6.16382 3.6586 7.3875 3.7191C7.33447 3.49249 7.30793 3.26064 7.30842 3.02809C7.30842 2.63037 7.38801 2.23655 7.54263 1.86911C7.69726 1.50167 7.92389 1.16782 8.2096 0.886627C8.4953 0.605432 8.83447 0.382402 9.20774 0.230273C9.58101 0.0781447 9.98106 -0.000101389 10.3851 4.02396e-06C10.8061 -0.000671946 11.2228 0.0838241 11.6092 0.248251C11.9957 0.412678 12.3438 0.653528 12.6318 0.955862C13.3208 0.821622 13.9815 0.573028 14.5859 0.22071C14.3553 0.921933 13.8746 1.51722 13.2326 1.89647C13.8425 1.82469 14.4381 1.66402 15 1.41975C14.5877 2.0287 14.0675 2.55963 13.4641 2.98716Z" fill="white"/>
</svg>
