<svg width="48" height="48" viewBox="0 0 24 24" fill="none" xmlns="http://www.w3.org/2000/svg">
<path d="M7 10L9 12L11 10M17 10L15 12L13 10M12 2C15.866 2 19 5.13401 19 9C19 11.305 17.761 13.165 16 14.462V16C16 17.1046 15.1046 18 14 18H13V14.462C14.761 13.165 16 11.305 16 9C16 5.13401 12.866 2 9 2C5.13401 2 2 5.13401 2 9C2 11.305 3.239 13.165 5 14.462V16C5 17.1046 5.89543 18 7 18H10V14.462C8.239 13.165 7 11.305 7 9C7 5.13401 5.866 2 9 2Z" stroke="currentColor" stroke-width="2" stroke-linecap="round" stroke-linejoin="round"/>
<path d="M12 14V18M12 18H10M12 18H14" stroke="currentColor" stroke-width="2" stroke-linecap="round" stroke-linejoin="round"/>
</svg>
