<svg width="38" height="28" viewBox="0 0 38 28" fill="none" xmlns="http://www.w3.org/2000/svg">
<path d="M3.54167 11.3759L0 7.7813C2.55556 5.27211 5.47222 3.34793 8.75 2.00876C12.0278 0.669587 15.4444 0 19 0C22.5556 0 25.9722 0.669587 29.25 2.00876C32.5278 3.34793 35.4444 5.27211 38 7.7813L34.4583 11.3759C32.375 9.34602 30 7.78835 27.3333 6.70291C24.6667 5.61748 21.8889 5.07476 19 5.07476C16.1111 5.07476 13.3333 5.61748 10.6667 6.70291C8 7.78835 5.625 9.34602 3.54167 11.3759ZM10.5833 18.5229L7.08333 14.9705C8.72222 13.4199 10.5625 12.2288 12.6042 11.3971C14.6458 10.5654 16.7778 10.1495 19 10.1495C21.2222 10.1495 23.3542 10.5654 25.3958 11.3971C27.4375 12.2288 29.2778 13.4199 30.9167 14.9705L27.4167 18.5229C26.25 17.4515 24.9514 16.6339 23.5208 16.0701C22.0903 15.5062 20.5833 15.2243 19 15.2243C17.4167 15.2243 15.9097 15.5062 14.4792 16.0701C13.0486 16.6339 11.75 17.4515 10.5833 18.5229ZM16.6458 26.0716C15.9931 25.4091 15.6667 24.6126 15.6667 23.6822C15.6667 22.7519 15.9931 21.9554 16.6458 21.2929C17.2986 20.6303 18.0833 20.299 19 20.299C19.9167 20.299 20.7014 20.6303 21.3542 21.2929C22.0069 21.9554 22.3333 22.7519 22.3333 23.6822C22.3333 24.6126 22.0069 25.4091 21.3542 26.0716C20.7014 26.7341 19.9167 27.0654 19 27.0654C18.0833 27.0654 17.2986 26.7341 16.6458 26.0716Z" fill="#101010"/>
</svg>
